<?xml version="1.0" encoding="UTF-8"?>
<svg id="Layer_2" data-name="Layer 2" xmlns="http://www.w3.org/2000/svg" viewBox="0 0 482.53 218.33">
  <defs>
    <style>
      .cls-1 {
        fill: #f8961d;
      }

      .cls-2 {
        fill: #0091c7;
      }

      .cls-3 {
        fill: #fff;
      }

      .cls-4 {
        fill: #fee700;
      }

      .cls-5 {
        fill: #d71d4d;
      }

      .cls-6 {
        fill: #5aba47;
      }
    </style>
  </defs>
  <g id="Layer_1-2" data-name="Layer 1">
    <path class="cls-5" d="M482.53,218.33C482.53,97.75,374.51,0,241.27,0S0,97.75,0,218.33"/>
    <path class="cls-1" d="M453.39,218.33c0-106.01-94.97-191.96-212.13-191.96S29.14,112.31,29.14,218.33"/>
    <path class="cls-4" d="M416.46,218.33c0-87.56-78.44-158.54-175.2-158.54S66.07,130.77,66.07,218.33"/>
    <path class="cls-6" d="M379.34,218.33c0-69-61.82-124.94-138.07-124.94s-138.07,55.94-138.07,124.94"/>
    <path class="cls-2" d="M345.17,218.33c0-49.78-46.52-90.13-103.91-90.13s-103.91,40.35-103.91,90.13"/>
    <path class="cls-3" d="M303.46,218.33c0-31.08-27.85-56.28-62.2-56.28s-62.2,25.2-62.2,56.28"/>
  </g>
</svg>